<svg id="visual" viewBox="0 0 960 540" width="960" height="540" xmlns="http://www.w3.org/2000/svg" xmlns:xlink="http://www.w3.org/1999/xlink" version="1.1"><rect x="0" y="0" width="960" height="540" fill="#b0e0e3"></rect><path d="M0 345L22.8 349.3C45.7 353.7 91.3 362.3 137 355.5C182.7 348.7 228.3 326.3 274 321.3C319.7 316.3 365.3 328.7 411.2 345.2C457 361.7 503 382.3 548.8 380.7C594.7 379 640.3 355 686 337.3C731.7 319.7 777.3 308.3 823 307.8C868.7 307.3 914.3 317.7 937.2 322.8L960 328L960 541L937.2 541C914.3 541 868.7 541 823 541C777.3 541 731.7 541 686 541C640.3 541 594.7 541 548.8 541C503 541 457 541 411.2 541C365.3 541 319.7 541 274 541C228.3 541 182.7 541 137 541C91.3 541 45.7 541 22.8 541L0 541Z" fill="#ffffFF" stroke-linecap="round" stroke-linejoin="miter"></path></svg>